<svg width="140" height="115" viewBox="0 0 140 115" fill="none" xmlns="http://www.w3.org/2000/svg">
<path d="M130.757 31.2037C130.757 46.8056 130.757 62.6439 130.757 78.2458C130.757 78.9549 130.757 79.4277 130.757 80.1369C120.808 80.1369 110.859 80.1369 100.674 80.1369C100.437 79.4277 100.437 78.4822 100.2 77.773C104.938 77.773 109.438 77.773 114.176 77.773C114.65 77.773 115.123 77.773 115.834 77.773C116.071 77.773 116.545 77.773 116.781 77.773C117.255 77.773 117.729 77.773 118.203 77.5366C124.125 76.3546 128.389 71.3904 128.625 65.2442C128.625 65.2442 128.625 65.2442 128.625 65.0078C128.625 56.4977 128.625 47.9876 128.625 39.4775C128.625 35.9316 127.204 32.1493 124.362 29.7854C120.335 26.2395 114.65 25.5303 109.912 28.1307C105.885 30.2582 103.516 34.7496 103.279 39.2411C103.279 40.8958 103.279 42.5506 103.279 44.2053C103.279 47.7512 103.279 51.0607 103.279 54.6066C100.911 54.6066 98.5418 54.6066 96.4099 54.6066C96.173 52.9518 95.9361 51.5335 95.4623 49.8787C94.9886 47.7512 92.8567 46.3328 90.9616 46.3328C77.4595 46.3328 64.1943 46.3328 50.6922 46.3328C48.7971 46.3328 46.4283 47.7512 46.1915 49.8787C45.9546 51.5335 45.4808 52.9518 45.2439 54.6066C42.6383 54.6066 40.0326 54.6066 37.4269 54.6066C37.4269 51.0607 37.4269 47.5148 37.4269 43.9689C37.4269 42.0778 37.4269 39.9503 37.4269 38.0591C36.7163 31.9129 31.9787 27.1851 26.0567 26.7123C20.3716 26.2395 15.1603 29.549 13.0284 34.7496C12.0808 37.1135 12.0808 39.2411 12.0808 41.605C12.0808 47.7512 12.0808 53.8974 12.0808 60.28C12.0808 62.1711 12.0808 64.2986 12.0808 66.1898C12.7915 72.5724 18.2397 77.773 24.6354 77.773C29.8468 77.773 35.0581 77.773 40.2695 77.773C40.0326 78.4822 40.0326 79.4277 39.7957 80.1369C29.6099 80.1369 19.661 80.1369 9.47517 80.1369C9.47517 65.9534 9.47517 52.0062 9.47517 37.8227C9.47517 35.6952 9.47517 33.3313 9.47517 31.2037C9.47517 25.0576 0 25.0576 0 31.2037C0 46.8056 0 62.6439 0 78.2458C0 80.3733 0 82.7372 0 84.8647C0 92.1929 0 99.7574 0 107.086C0 108.031 0 109.213 0 110.159C0 112.523 2.13191 114.887 4.73759 114.887C7.34326 114.887 9.47517 112.759 9.47517 110.159C9.47517 103.303 9.47517 96.448 9.47517 89.5926C18.9503 89.5926 28.4255 89.5926 37.9007 89.5926C37.19 93.6113 36.2425 97.6299 35.5319 101.649C35.0581 104.012 34.5844 106.613 34.1106 108.977C33.4 112.05 35.5319 114.887 38.6113 114.887C43.8227 114.887 49.034 114.887 54.2453 114.887C57.0879 114.887 59.9305 114.887 62.773 114.887C65.8524 114.887 68.2212 113.232 70.3531 111.104C71.3007 111.813 72.2482 112.759 73.1957 113.468C75.8014 115.596 79.5914 114.887 82.6709 114.887C88.8297 114.887 95.2255 114.887 101.384 114.887H101.858C102.806 114.887 103.753 114.414 104.227 113.941C104.464 113.705 104.464 113.705 104.701 113.468C105.648 112.286 106.122 110.631 105.885 108.977C104.701 102.594 103.516 95.9752 102.332 89.5926C111.807 89.5926 121.282 89.5926 130.52 89.5926C130.52 95.5024 130.52 101.176 130.52 107.086C130.52 108.031 130.52 109.213 130.52 110.159C130.52 112.523 132.652 114.887 135.258 114.887C137.864 114.887 139.996 112.759 139.996 110.159C139.996 102.831 139.996 95.266 139.996 87.9378C139.996 86.9923 139.996 85.8103 139.996 84.8647C139.996 69.2629 139.996 53.4246 139.996 37.8227C139.996 35.6952 139.996 33.3313 139.996 31.2037C140.233 25.0576 130.757 25.0576 130.757 31.2037ZM112.518 47.7512C112.518 45.3873 112.518 43.2597 112.518 40.8958C112.518 40.423 112.518 39.7139 112.518 39.2411C112.518 39.0047 112.518 39.0047 112.518 38.7683C112.518 39.0047 112.755 38.0591 112.755 38.0591V37.8227C112.755 37.5863 112.991 37.3499 112.991 37.1135C112.991 37.1135 112.991 37.1135 112.991 36.8772C112.991 36.8772 113.228 36.8772 113.228 36.6408C113.465 36.4044 113.465 36.4044 113.465 36.4044C113.465 36.4044 113.465 36.4044 113.702 36.4044C113.702 36.4044 114.176 36.168 114.413 36.168C114.65 36.168 115.123 35.9316 115.123 35.9316H115.36C115.36 35.9316 115.597 35.9316 115.834 35.9316H116.071C116.308 35.9316 116.545 36.168 116.781 36.168C116.781 36.168 117.255 36.4044 117.492 36.6408C117.492 36.6408 117.729 36.8772 117.966 36.8772L118.44 37.5863L118.677 37.8227V38.0591C118.677 38.0591 118.913 39.0047 118.913 38.7683C118.913 39.0047 118.913 39.2411 118.913 39.7139C118.913 44.2053 118.913 48.4604 118.913 52.9518C118.913 56.9705 118.913 60.9891 118.913 65.0078C118.913 66.6626 117.492 68.0809 115.834 68.0809C110.149 68.0809 104.464 68.0809 98.7786 68.0809C98.5418 66.6626 98.3049 65.2442 98.068 63.8258C100.674 63.8258 103.516 63.8258 106.122 63.8258C106.833 63.8258 107.306 63.8258 108.017 63.8258C109.201 63.8258 110.386 63.3531 111.096 62.6439C112.044 61.6983 112.755 60.5164 112.755 59.098C112.518 55.5521 112.518 51.7699 112.518 47.7512ZM27.0042 68.3173C26.2936 68.3173 25.3461 68.3173 24.6354 68.3173C22.7404 68.3173 21.556 66.8989 21.556 65.0078C21.556 63.5895 21.556 62.1711 21.556 60.5164C21.556 55.0793 21.556 49.4059 21.556 43.9689C21.556 42.3142 21.556 40.8958 21.556 39.2411C21.556 37.3499 22.7404 35.9316 24.6354 35.9316C26.5305 35.9316 27.7149 37.3499 27.7149 39.2411C27.7149 40.8958 27.7149 42.787 27.7149 44.4417C27.7149 49.4059 27.7149 54.3702 27.7149 59.3344C27.7149 60.9891 28.4255 62.1711 29.373 62.8803C30.0837 63.5895 31.2681 64.0622 32.4525 64.0622C36.0056 64.0622 39.5588 64.0622 43.112 64.0622C42.8751 65.4806 42.6383 66.8989 42.1645 68.3173C37.19 68.3173 31.9787 68.3173 27.0042 68.3173ZM78.1702 105.431C76.512 104.012 75.0907 102.831 73.4326 101.412C71.3007 99.7574 68.695 99.5211 66.7999 101.412C65.3787 102.831 63.7205 104.012 62.2992 105.431C56.3773 105.431 50.4553 105.431 44.2964 105.431C47.3759 90.0654 50.4553 74.9363 53.5347 59.5708C53.7716 58.1524 54.0085 56.9705 54.2453 55.5521C65.1418 55.5521 75.8014 55.5521 86.6978 55.5521C89.5404 71.6268 92.3829 87.7014 95.4623 103.776C95.4623 104.249 95.6992 104.722 95.6992 105.194C89.7772 105.431 84.0921 105.431 78.1702 105.431Z" fill="white" fill-opacity="0.7"/>
<path d="M24.6354 23.1664C31.0312 23.1664 36.2425 17.9658 36.2425 11.5832C36.2425 5.20062 31.0312 0 24.6354 0C18.2397 0 13.0284 5.20062 13.0284 11.5832C13.0284 17.9658 18.2397 23.1664 24.6354 23.1664ZM24.6354 9.45568C25.8198 9.45568 26.7674 10.4012 26.7674 11.5832C26.7674 12.7652 25.8198 13.7107 24.6354 13.7107C23.451 13.7107 22.5035 12.7652 22.5035 11.5832C22.5035 10.4012 23.451 9.45568 24.6354 9.45568Z" fill="white" fill-opacity="0.7"/>
<path d="M115.834 23.1664C122.23 23.1664 127.441 17.9658 127.441 11.5832C127.441 5.20062 122.23 0 115.834 0C109.438 0 104.227 5.20062 104.227 11.5832C104.227 17.9658 109.438 23.1664 115.834 23.1664ZM115.834 9.45568C117.018 9.45568 117.966 10.4012 117.966 11.5832C117.966 12.7652 117.018 13.7107 115.834 13.7107C114.65 13.7107 113.702 12.7652 113.702 11.5832C113.702 10.4012 114.65 9.45568 115.834 9.45568Z" fill="white" fill-opacity="0.7"/>
</svg>
