<svg width="140" height="115" viewBox="0 0 140 115" fill="none" xmlns="http://www.w3.org/2000/svg">
<path d="M135.625 106.154H4.375C1.96 106.154 0 108.135 0 110.577C0 113.018 1.96 115 4.375 115H135.625C138.04 115 140 113.018 140 110.577C140 108.135 138.04 106.154 135.625 106.154ZM74.375 17.6923V8.84615H83.125C85.54 8.84615 87.5 6.86462 87.5 4.42308C87.5 1.98154 85.54 0 83.125 0H56.875C54.46 0 52.5 1.98154 52.5 4.42308C52.5 6.86462 54.46 8.84615 56.875 8.84615H65.625C65.625 8.84615 65.5943 18.0549 65.625 17.6923C29.015 19.9879 0 50.8699 0 88.4615C0 92.053 0 90.4431 0 92.8846C0 95.3262 1.96 97.3077 4.375 97.3077H135.625C138.04 97.3077 140 95.3262 140 92.8846C140 90.4431 140 92.3316 140 88.4615C140 50.8699 110.985 19.9879 74.375 17.6923ZM8.75 88.4615C8.75 54.2622 36.1724 26.5385 70 26.5385C103.828 26.5385 131.25 54.2622 131.25 88.4615H8.75Z" fill="white" fill-opacity="0.7"/>
</svg>
