<svg width="140" height="115" viewBox="0 0 178 179" fill="none" xmlns="http://www.w3.org/2000/svg">
<path d="M105.782 108.017C106.301 108.018 106.815 107.915 107.295 107.716C107.775 107.516 108.211 107.223 108.578 106.854C120.656 94.7034 136.818 87.5215 153.895 86.7157L154.498 86.6868C155.019 86.6662 155.532 86.5421 156.005 86.3217C156.479 86.1012 156.904 85.7887 157.257 85.4023C157.61 85.0159 157.883 84.5632 158.06 84.0703C158.238 83.5774 158.316 83.054 158.292 82.5304C158.267 82.0068 158.139 81.4933 157.916 81.0195C157.692 80.5458 157.378 80.1211 156.99 79.7701C156.603 79.419 156.15 79.1485 155.657 78.9742C155.165 78.7999 154.643 78.7251 154.122 78.7543L153.518 78.7832C134.476 79.6816 116.455 87.6899 102.986 101.238C102.433 101.794 102.056 102.501 101.904 103.272C101.751 104.042 101.829 104.84 102.129 105.566C102.428 106.292 102.935 106.912 103.585 107.348C104.235 107.784 105 108.017 105.782 108.017Z" fill="white" fill-opacity="0.7"/>
<path d="M74.6305 76.7306C75.1498 76.7312 75.6642 76.6288 76.144 76.4292C76.6238 76.2296 77.0596 75.9368 77.4264 75.5675C90.9159 62.0402 98.8894 43.9412 99.7844 24.8172L99.8134 24.2116C99.8383 23.6908 99.7608 23.17 99.5853 22.6792C99.4099 22.1884 99.1399 21.7371 98.7907 21.3511C98.4416 20.9651 98.0202 20.6519 97.5506 20.4295C97.0809 20.207 96.5723 20.0797 96.0536 20.0547C95.535 20.0296 95.0165 20.1075 94.5278 20.2837C94.0392 20.4599 93.5898 20.7311 93.2055 21.0817C92.8211 21.4324 92.5093 21.8556 92.2878 22.3273C92.0663 22.7989 91.9395 23.3098 91.9146 23.8307L91.8857 24.4373C91.0836 41.5884 83.9327 57.8205 71.8346 69.952C71.2817 70.5074 70.9052 71.2149 70.7526 71.9852C70.6001 72.7555 70.6784 73.5539 70.9777 74.2795C71.2769 75.005 71.7837 75.6252 72.4339 76.0615C73.0841 76.4978 73.8485 76.7306 74.6305 76.7306Z" fill="white" fill-opacity="0.7"/>
<path d="M51.675 70.9461C51.2215 70.4905 50.6645 70.1526 50.052 69.9616C49.4395 69.7705 48.7898 69.7319 48.1592 69.8492C47.5285 69.9665 46.9357 70.2361 46.432 70.6348C45.9282 71.0335 45.5286 71.5493 45.2676 72.1378L0.342315 173.413C0.0167741 174.147 -0.0795376 174.962 0.0660976 175.752C0.211733 176.542 0.592467 177.269 1.15803 177.837C1.72358 178.405 2.44737 178.787 3.23382 178.934C4.02027 179.08 4.8324 178.983 5.56297 178.656L106.401 133.536C106.987 133.274 107.501 132.873 107.898 132.367C108.295 131.861 108.563 131.265 108.68 130.632C108.797 129.999 108.758 129.346 108.568 128.731C108.378 128.116 108.042 127.557 107.588 127.101L51.675 70.9461ZM11.7598 167.189L26.7983 133.288L35.8562 156.004C35.902 156.119 35.9541 156.229 36.0053 156.34L11.7598 167.189ZM48.1903 150.888L34.3691 116.221L44.0583 94.3791L63.8047 143.902L48.1903 150.888ZM76.0029 138.443L54.8307 85.3463L97.9297 128.632L76.0029 138.443Z" fill="white" fill-opacity="0.7"/>
<path d="M43.5624 27.8522C44.3619 27.8522 45.1434 27.6141 45.8082 27.1681C46.4729 26.722 46.991 26.088 47.297 25.3462C47.603 24.6044 47.6831 23.7881 47.5271 23.0006C47.3712 22.2131 46.9862 21.4897 46.4209 20.9219C45.8556 20.3541 45.1354 19.9674 44.3513 19.8108C43.5672 19.6541 42.7544 19.7345 42.0158 20.0417C41.2772 20.349 40.6458 20.8693 40.2017 21.5369C39.7575 22.2045 39.5204 22.9894 39.5204 23.7924C39.5215 24.8687 39.9477 25.9006 40.7055 26.6617C41.4633 27.4228 42.4907 27.851 43.5624 27.8522Z" fill="white" fill-opacity="0.7"/>
<path d="M43.5624 16.241C44.611 16.241 45.6167 15.8226 46.3581 15.0779C47.0996 14.3332 47.5161 13.3232 47.5161 12.2701V3.97087C47.5161 2.91773 47.0996 1.90772 46.3581 1.16304C45.6167 0.418359 44.611 0 43.5624 0C42.5138 0 41.5082 0.418359 40.7667 1.16304C40.0252 1.90772 39.6087 2.91773 39.6087 3.97087V12.27C39.6087 12.7915 39.7109 13.3078 39.9096 13.7896C40.1083 14.2714 40.3995 14.7091 40.7667 15.0779C41.1338 15.4466 41.5697 15.7391 42.0494 15.9387C42.5291 16.1382 43.0432 16.241 43.5624 16.241Z" fill="white" fill-opacity="0.7"/>
<path d="M43.5624 31.3441C42.5138 31.3441 41.5082 31.7624 40.7667 32.5071C40.0252 33.2518 39.6087 34.2618 39.6087 35.3149V43.6144C39.6087 44.6675 40.0252 45.6776 40.7667 46.4222C41.5082 47.1669 42.5138 47.5853 43.5624 47.5853C44.611 47.5853 45.6167 47.1669 46.3581 46.4222C47.0996 45.6776 47.5161 44.6675 47.5161 43.6144V35.3149C47.5161 34.2618 47.0996 33.2518 46.3581 32.5071C45.6167 31.7624 44.611 31.3441 43.5624 31.3441Z" fill="white" fill-opacity="0.7"/>
<path d="M23.8261 27.7634H32.0898C33.1384 27.7634 34.144 27.345 34.8855 26.6003C35.6269 25.8557 36.0435 24.8457 36.0435 23.7925C36.0435 22.7394 35.6269 21.7294 34.8855 20.9847C34.144 20.24 33.1384 19.8216 32.0898 19.8216H23.8261C22.7775 19.8216 21.7719 20.24 21.0304 20.9847C20.2889 21.7294 19.8724 22.7394 19.8724 23.7925C19.8724 24.8457 20.2889 25.8557 21.0304 26.6003C21.7719 27.345 22.7775 27.7634 23.8261 27.7634Z" fill="white" fill-opacity="0.7"/>
<path d="M55.0351 27.7634H63.2988C64.3474 27.7634 65.353 27.345 66.0945 26.6003C66.8359 25.8557 67.2525 24.8457 67.2525 23.7925C67.2525 22.7394 66.8359 21.7294 66.0945 20.9847C65.353 20.24 64.3474 19.8216 63.2988 19.8216H55.0351C53.9865 19.8216 52.9809 20.24 52.2394 20.9847C51.4979 21.7294 51.0814 22.7394 51.0814 23.7925C51.0814 24.8457 51.4979 25.8557 52.2394 26.6003C52.9809 27.345 53.9865 27.7634 55.0351 27.7634Z" fill="white" fill-opacity="0.7"/>
<path d="M147.69 36.0791C148.489 36.0791 149.271 35.841 149.935 35.395C150.6 34.9489 151.118 34.3149 151.424 33.5731C151.73 32.8313 151.81 32.015 151.654 31.2275C151.498 30.44 151.113 29.7166 150.548 29.1488C149.983 28.581 149.263 28.1943 148.479 28.0377C147.694 27.881 146.882 27.9614 146.143 28.2686C145.404 28.5759 144.773 29.0962 144.329 29.7638C143.885 30.4314 143.648 31.2163 143.648 32.0193C143.649 33.0956 144.075 34.1275 144.833 34.8886C145.591 35.6497 146.618 36.0778 147.69 36.0791Z" fill="white" fill-opacity="0.7"/>
<path d="M147.69 24.4677C148.738 24.4677 149.744 24.0494 150.485 23.3047C151.227 22.56 151.643 21.55 151.643 20.4968V12.1977C151.643 11.1446 151.227 10.1346 150.485 9.38989C149.744 8.64521 148.738 8.22685 147.69 8.22685C146.641 8.22685 145.635 8.64521 144.894 9.38989C144.152 10.1346 143.736 11.1446 143.736 12.1977V20.4968C143.736 21.55 144.152 22.56 144.894 23.3047C145.635 24.0494 146.641 24.4677 147.69 24.4677Z" fill="white" fill-opacity="0.7"/>
<path d="M147.69 39.5708C146.641 39.5708 145.635 39.9892 144.894 40.7339C144.152 41.4785 143.736 42.4885 143.736 43.5417V51.8412C143.736 52.8943 144.152 53.9043 144.894 54.649C145.635 55.3937 146.641 55.8121 147.69 55.8121C148.738 55.8121 149.744 55.3937 150.485 54.649C151.227 53.9043 151.643 52.8943 151.643 51.8412V43.5417C151.643 42.4885 151.227 41.4785 150.485 40.7339C149.744 39.9892 148.738 39.5708 147.69 39.5708Z" fill="white" fill-opacity="0.7"/>
<path d="M127.954 35.9901H136.217C137.266 35.9901 138.272 35.5718 139.013 34.8271C139.755 34.0824 140.171 33.0724 140.171 32.0193C140.171 30.9661 139.755 29.9561 139.013 29.2114C138.272 28.4668 137.266 28.0484 136.217 28.0484H127.954C126.905 28.0484 125.9 28.4668 125.158 29.2114C124.417 29.9561 124 30.9661 124 32.0193C124 33.0724 124.417 34.0824 125.158 34.8271C125.9 35.5718 126.905 35.9901 127.954 35.9901Z" fill="white" fill-opacity="0.7"/>
<path d="M171.38 32.0193C171.38 30.9661 170.963 29.9561 170.222 29.2114C169.48 28.4668 168.475 28.0484 167.426 28.0484H159.162C158.114 28.0484 157.108 28.4668 156.367 29.2114C155.625 29.9561 155.209 30.9661 155.209 32.0193C155.209 33.0724 155.625 34.0824 156.367 34.8271C157.108 35.5718 158.114 35.9901 159.162 35.9901H167.426C168.475 35.9901 169.48 35.5718 170.222 34.8271C170.963 34.0824 171.38 33.0724 171.38 32.0193Z" fill="white" fill-opacity="0.7"/>
<path d="M154.31 140.802C153.51 140.802 152.729 141.04 152.064 141.486C151.399 141.932 150.881 142.566 150.575 143.308C150.269 144.049 150.189 144.866 150.345 145.653C150.501 146.441 150.886 147.164 151.451 147.732C152.017 148.3 152.737 148.686 153.521 148.843C154.305 149 155.118 148.919 155.857 148.612C156.595 148.305 157.227 147.784 157.671 147.117C158.115 146.449 158.352 145.664 158.352 144.861C158.351 143.785 157.925 142.753 157.167 141.992C156.409 141.231 155.382 140.803 154.31 140.802Z" fill="white" fill-opacity="0.7"/>
<path d="M154.31 121.069C153.261 121.069 152.256 121.487 151.514 122.232C150.773 122.976 150.356 123.986 150.356 125.04V133.339C150.356 134.392 150.773 135.402 151.514 136.147C152.256 136.891 153.261 137.31 154.31 137.31C155.359 137.31 156.364 136.891 157.106 136.147C157.847 135.402 158.264 134.392 158.264 133.339V125.04C158.264 123.986 157.847 122.976 157.106 122.232C156.364 121.487 155.359 121.069 154.31 121.069Z" fill="white" fill-opacity="0.7"/>
<path d="M154.31 152.413C153.261 152.413 152.256 152.831 151.514 153.576C150.773 154.321 150.356 155.331 150.356 156.384V164.683C150.356 165.736 150.773 166.746 151.514 167.491C152.256 168.235 153.261 168.654 154.31 168.654C155.359 168.654 156.364 168.235 157.106 167.491C157.847 166.746 158.264 165.736 158.264 164.683V156.384C158.264 155.331 157.847 154.321 157.106 153.576C156.364 152.831 155.359 152.413 154.31 152.413Z" fill="white" fill-opacity="0.7"/>
<path d="M142.837 140.891H134.574C133.525 140.891 132.519 141.309 131.778 142.054C131.036 142.798 130.62 143.808 130.62 144.861C130.62 145.915 131.036 146.925 131.778 147.669C132.519 148.414 133.525 148.832 134.574 148.832H142.837C143.886 148.832 144.892 148.414 145.633 147.669C146.374 146.925 146.791 145.915 146.791 144.861C146.791 143.808 146.374 142.798 145.633 142.054C144.892 141.309 143.886 140.891 142.837 140.891Z" fill="white" fill-opacity="0.7"/>
<path d="M174.046 140.891H165.783C164.734 140.891 163.728 141.309 162.987 142.054C162.245 142.798 161.829 143.808 161.829 144.861C161.829 145.915 162.245 146.925 162.987 147.669C163.728 148.414 164.734 148.832 165.783 148.832H174.046C175.095 148.832 176.101 148.414 176.842 147.669C177.583 146.925 178 145.915 178 144.861C178 143.808 177.583 142.798 176.842 142.054C176.101 141.309 175.095 140.891 174.046 140.891Z" fill="white" fill-opacity="0.7"/>
</svg>
